<svg width="24" height="24" viewBox="0 0 24 24" fill="none" xmlns="http://www.w3.org/2000/svg">
<path d="M13 10.5H17.5C18.2082 10.5 18.8247 10.6416 19.3496 10.9248C19.8829 11.2081 20.2919 11.6171 20.5752 12.1504C20.8584 12.6753 21 13.2918 21 14V16H19V14C19 13.5333 18.8663 13.1671 18.5996 12.9004C18.3329 12.6337 17.9667 12.5 17.5 12.5H13V16H11V12.5H6.5C6.04167 12.5 5.67539 12.6337 5.40039 12.9004C5.13372 13.1671 5 13.5333 5 14V16H3V14C3 13.2918 3.14161 12.6753 3.4248 12.1504C3.70814 11.6171 4.1127 11.2081 4.6377 10.9248C5.17098 10.6416 5.79177 10.5 6.5 10.5H11V8H13V10.5Z" fill="#3C5CD8"/>
<path d="M9.0125 2.5125C8.67083 2.85417 8.5 3.35 8.5 4V6.5C8.5 7.15 8.67083 7.64583 9.0125 7.9875C9.35417 8.32917 9.85 8.5 10.5 8.5H13.5C14.15 8.5 14.6458 8.32917 14.9875 7.9875C15.3292 7.64583 15.5 7.15 15.5 6.5V4C15.5 3.35 15.3292 2.85417 14.9875 2.5125C14.6458 2.17083 14.15 2 13.5 2H10.5C9.85 2 9.35417 2.17083 9.0125 2.5125Z" fill="#6582F1"/>
<path d="M9.02337 16.0125C8.6817 16.3542 8.51086 16.85 8.51086 17.5V20C8.51086 20.65 8.6817 21.1458 9.02337 21.4875C9.36503 21.8292 9.86087 22 10.5109 22H13.5109C14.1609 22 14.6567 21.8292 14.9984 21.4875C15.34 21.1458 15.5109 20.65 15.5109 20V17.5C15.5109 16.85 15.34 16.3542 14.9984 16.0125C14.6567 15.6708 14.1609 15.5 13.5109 15.5H10.5109C9.86087 15.5 9.36503 15.6708 9.02337 16.0125Z" fill="#6582F1"/>
<path d="M17.0234 16.0125C16.6817 16.3542 16.5109 16.85 16.5109 17.5V20C16.5109 20.65 16.6817 21.1458 17.0234 21.4875C17.365 21.8292 17.8609 22 18.5109 22H21.5109C22.1609 22 22.6567 21.8292 22.9984 21.4875C23.34 21.1458 23.5109 20.65 23.5109 20V17.5C23.5109 16.85 23.34 16.3542 22.9984 16.0125C22.6567 15.6708 22.1609 15.5 21.5109 15.5H18.5109C17.8609 15.5 17.365 15.6708 17.0234 16.0125Z" fill="#6582F1"/>
<path d="M1.02324 16.0125C0.681576 16.3542 0.510742 16.85 0.510742 17.5V20C0.510742 20.65 0.681576 21.1458 1.02324 21.4875C1.36491 21.8292 1.86074 22 2.51074 22H5.51074C6.16074 22 6.65658 21.8292 6.99824 21.4875C7.33991 21.1458 7.51074 20.65 7.51074 20V17.5C7.51074 16.85 7.33991 16.3542 6.99824 16.0125C6.65658 15.6708 6.16074 15.5 5.51074 15.5H2.51074C1.86074 15.5 1.36491 15.6708 1.02324 16.0125Z" fill="#6582F1"/>
</svg>
